<svg xmlns="http://www.w3.org/2000/svg" version="1.1" xmlns:xlink="http://www.w3.org/1999/xlink" xmlns:svgjs="http://svgjs.dev/svgjs" width="1440" height="560" preserveAspectRatio="none" viewBox="0 0 1440 560"><g mask="url(&quot;#SvgjsMask1005&quot;)" fill="none"><rect width="1440" height="560" x="0" y="0" fill="rgba(39, 41, 43, 1)"></rect><path d="M0 110C14.22 54.41 -1.02 28.94 35.81 0C68.98 -26.06 87.91 0 140 0C193.33 0 195.65 -7.85 246.67 0C265.65 2.92 265.04 21.54 280 21.54C290.46 21.54 284.57 1.99 297.5 0C354.57 -8.78 358.75 0 420 0C490 0 490 0 560 0C630 0 630 0 700 0C770 0 770 0 840 0C900.92 0 902.55 -5.26 961.85 0C972.55 0.95 971.36 12.41 980 12.41C987.24 12.41 984.71 0.79 993.61 0C1054.71 -5.42 1056.81 0 1120 0C1190 0 1190 0 1260 0C1313.85 0 1363.06 -27.8 1367.69 0C1374.72 42.2 1274.07 89.86 1283.33 140C1290.23 177.36 1344.28 175 1400 175C1428.86 175 1433.85 164.6 1452.5 140C1500.17 77.1 1490.79 66.94 1532.63 0C1534.54 -3.06 1539.82 -3.5 1540 0C1543.5 66.5 1540 70 1540 140C1540 210 1540 210 1540 280C1540 350 1540 350 1540 420C1540 490 1569.09 519.09 1540 560C1519.31 589.09 1488.4 567.33 1440.44 560C1418.4 556.63 1421.97 538.59 1400 538.59C1336.75 538.59 1335.06 550.05 1270 560C1265.06 560.76 1265 560 1260 560C1190 560 1190 560 1120 560C1050 560 1050 560 980 560C914.86 560 912.28 565.39 849.72 560C842.28 559.36 845.56 553.32 840 547.93C773.25 483.32 771.93 484.5 705.09 420C701.93 416.95 703.96 412.82 700 412.82C683.92 412.82 675.23 406.55 665 420C619.23 480.14 632.67 500.44 588 560C580.17 570.44 574 560 560 560C490 560 490 560 420 560C350 560 350 560 280 560C210 560 210 560 140 560C70 560 37.55 592.45 0 560C-32.45 531.96 -32.33 463.07 0 439.01C37.67 410.97 72.13 461.65 140 455.81C182.65 452.14 221.05 440.06 221.05 420C221.05 398.82 176.7 401.81 140 373.33C86.5 331.81 78.99 334.31 40.65 280C8.99 235.14 15.51 228.4 0 175C-4.82 158.4 0 157.5 0 140C0 125 -3.69 124.41 0 110" stroke="rgba(49, 64, 65, 0.58)" stroke-width="2"></path><path d="M700 45.16C653.88 45.16 582.4 100.62 582.4 140C582.4 173.38 648.17 190.69 700 190.69C725.34 190.69 736.75 167.73 736.75 140C736.75 94.96 731.05 45.16 700 45.16" stroke="rgba(49, 64, 65, 0.58)" stroke-width="2"></path><path d="M1120 137.88C1118.61 137.88 1118.08 138.79 1118.08 140C1118.08 141.97 1117.85 144.24 1120 144.24C1136.31 144.24 1155 141.59 1155 140C1155 138.41 1137.07 137.88 1120 137.88" stroke="rgba(49, 64, 65, 0.58)" stroke-width="2"></path><path d="M420 238.82C399.47 251.39 392.37 258.31 392.37 280C392.37 308.9 393.56 325.71 420 340C477.37 371 508.5 388.55 560 370.59C594.54 358.55 592.08 325.6 592.08 280C592.08 228.97 595.53 185.83 560 177.33C509.49 165.24 483.29 200.06 420 238.82" stroke="rgba(49, 64, 65, 0.58)" stroke-width="2"></path><path d="M840 241.98C815.5 241.98 787.8 260.51 787.8 280C787.8 300.05 815.64 321.07 840 321.07C860.3 321.07 877.11 300.18 877.11 280C877.11 260.63 860.16 241.98 840 241.98" stroke="rgba(49, 64, 65, 0.58)" stroke-width="2"></path><path d="M1260 158.26C1235.4 158.26 1206.15 227.14 1206.15 280C1206.15 305.51 1234 315 1260 315C1282.47 315 1303.08 303.56 1303.08 280C1303.08 225.19 1283.86 158.26 1260 158.26" stroke="rgba(49, 64, 65, 0.58)" stroke-width="2"></path><path d="M140 30.63C128.52 30.63 117.21 9.59 117.21 0C117.21 -5.72 128.61 0 140 0C151.67 0 163.33 -5.78 163.33 0C163.33 9.54 151.58 30.63 140 30.63" stroke="rgba(49, 64, 65, 0.58)" stroke-width="2"></path><path d="M203.64 140C229.53 99.01 245.09 110.9 280 75.38C313.9 40.9 302.59 20.81 341.25 0C372.59 -16.88 380.63 0 420 0C490 0 490 0 560 0C611.25 0 662.5 -19.72 662.5 0C662.5 26.57 615.58 52.55 560 92.58C518.4 122.55 513.3 114.95 468.13 140C443.3 153.76 438.31 149.16 420 170.2C377.4 219.16 383.62 225.41 346.32 280C313.62 327.86 321.01 375.09 280 375.09C223.24 375.09 170.52 340.82 150.77 280C132.34 223.27 164.91 201.32 203.64 140" stroke="rgba(49, 64, 65, 0.58)" stroke-width="2"></path><path d="M780.5 140C754.31 77.45 738 44.13 756.76 0C767.75 -25.87 798.38 0 840 0C868.52 0 871.69 -10.27 897.04 0C941.69 18.09 940.5 56.71 980 56.71C1013.09 56.71 1005.84 14.74 1042.22 0C1075.84 -13.62 1081.11 0 1120 0C1190 0 1190 0 1260 0C1291.41 0 1322.82 -15.95 1322.82 0C1322.82 27.03 1303.81 67.63 1260 85.96C1202.4 110.06 1182 67.2 1120 84.85C1087.07 94.22 1070.14 108.52 1070.14 140C1070.14 191.25 1093.38 196.06 1120 250.3C1127.74 266.06 1125.15 269.38 1138.85 280C1195.15 323.61 1201.51 358.75 1260 358.75C1310.55 358.75 1310.52 321.57 1356.92 280C1380.52 258.86 1374.91 252.51 1400 233.33C1466.45 182.51 1501.79 127.26 1540 140C1571.79 150.6 1540 210 1540 280C1540 350 1540 350 1540 420C1540 490 1549.42 499.42 1540 560C1538.53 569.42 1528.02 564.38 1518.22 560C1458.02 533.09 1463.06 511.32 1400 497.41C1333.95 482.84 1330.02 500.95 1260 503.05C1190.02 505.15 1182.35 487.21 1120 505.81C1086.89 515.69 1100.93 547.67 1069.09 560C1030.93 574.77 1024.55 560 980 560C939.16 560 931.06 576.93 898.33 560C861.06 540.73 871.51 521.63 840 487.59C806.71 451.63 768.73 451.55 768.73 420C768.73 391.62 807.8 397.67 840 367.73C883.08 327.67 919.28 323.1 919.28 280C919.28 238.62 879.95 239.07 840 198.77C810.56 169.07 795.93 176.84 780.5 140" stroke="rgba(49, 64, 65, 0.58)" stroke-width="2"></path><path d="M665 280C665 263.78 683.24 251.03 700 251.03C714.98 251.03 728.47 264.14 728.47 280C728.47 300.16 715.29 323.08 700 323.08C683.56 323.08 665 299.81 665 280" stroke="rgba(49, 64, 65, 0.58)" stroke-width="2"></path><path d="M0 482.22C46.14 474.71 70.95 539.79 140 537.21C210.95 534.55 207.14 482 280 471.74C347.14 462.29 364.97 467.57 420 497.78C445.34 511.7 440.74 536.36 440.74 560C440.74 567.47 430.37 560 420 560C350 560 350 560 280 560C210 560 210 560 140 560C70 560 45 585 0 560C-25 546.11 -23.86 486.1 0 482.22" stroke="rgba(49, 64, 65, 0.58)" stroke-width="2"></path><path d="M267.27 140C269.34 132.1 272.49 129.23 280 129.23C297.28 129.23 314.67 123.87 316.84 140C324.8 199.25 314.98 212.45 300.26 280C296.56 296.98 292.53 309.06 280 309.06C262.66 309.06 242.14 301.64 240.51 280C235.77 217.11 249.59 207.49 267.27 140" stroke="rgba(49, 64, 65, 0.58)" stroke-width="2"></path><path d="M420 82.35C386.95 75.53 385 29.6 385 0C385 -11.58 402.5 0 420 0C490 0 490 0 560 0C580 0 600 -7.7 600 0C600 10.37 584.09 25.11 560 36.13C494.09 66.28 474.45 93.59 420 82.35" stroke="rgba(49, 64, 65, 0.58)" stroke-width="2"></path><path d="M824.25 140C824.25 90.12 808.32 42.93 840 35C886.19 23.44 913.56 62.72 980 101.01C1004.66 115.22 1014.48 114.02 1022.19 140C1041.03 203.51 1046.08 215.41 1033.1 280C1024.98 320.41 999.64 350 980 350C963.81 350 982.03 308.58 961.45 280C912.03 211.36 900.85 217.65 840 155.56C832.25 147.65 824.25 150.4 824.25 140" stroke="rgba(49, 64, 65, 0.58)" stroke-width="2"></path><path d="M1120 31.82C1100.09 28.93 1090.83 9.49 1090.83 0C1090.83 -6.42 1105.41 0 1120 0C1190 0 1190 0 1260 0C1268.97 0 1277.95 -4.56 1277.95 0C1277.95 7.72 1274.08 21.72 1260 24.56C1195.11 37.63 1184.67 41.21 1120 31.82" stroke="rgba(49, 64, 65, 0.58)" stroke-width="2"></path><path d="M1435 280C1486.06 251.4 1503.72 227.5 1540 227.5C1556.22 227.5 1540 253.75 1540 280C1540 350 1540 350 1540 420C1540 460 1564.7 493.61 1540 500C1494.7 511.73 1471.49 470.61 1400 456.24C1331.49 442.47 1330.11 445.46 1260 443.73C1190.11 442.01 1188.29 456.86 1120 449.35C1080.37 444.99 1044.17 440.2 1044.17 420C1044.17 396.17 1077.21 364.76 1120 361.29C1185.12 356.01 1195.35 415.28 1260 402.5C1335.35 387.6 1330.34 354.69 1400 305.93C1417.84 293.44 1416.06 290.61 1435 280" stroke="rgba(49, 64, 65, 0.58)" stroke-width="2"></path><path d="M832.36 420C832.36 416.96 835.54 414.4 840 414.4C854.36 414.4 870 416.81 870 420C870 423.23 854.03 427.24 840 427.24C835.21 427.24 832.36 423.38 832.36 420" stroke="rgba(49, 64, 65, 0.58)" stroke-width="2"></path><path d="M0 525.43C25.86 525.43 73.68 550.93 73.68 560C73.68 568.21 25.08 571.76 0 560C-11.76 554.48 -10.98 525.43 0 525.43" stroke="rgba(49, 64, 65, 0.58)" stroke-width="2"></path><path d="M254.55 560C254.55 556.8 267.43 547.83 280 547.83C291.36 547.83 302.4 556.76 302.4 560C302.4 562.85 291.2 560 280 560C267.27 560 254.55 562.89 254.55 560" stroke="rgba(49, 64, 65, 0.58)" stroke-width="2"></path><path d="M946.94 560C946.94 528.81 962.83 475 980 475C997.39 475 1016.06 529.44 1016.06 560C1016.06 571.94 998.03 560 980 560C963.47 560 946.94 571.31 946.94 560" stroke="rgba(49, 64, 65, 0.58)" stroke-width="2"></path></g><defs><mask id="SvgjsMask1005"><rect width="1440" height="560" fill="#ffffff"></rect></mask></defs></svg>